<svg xmlns="http://www.w3.org/2000/svg" viewBox="0 0 512 512">
  <!-- game-icons "anvil-impact" 3 parçaya ayrıldı — Lorc, game-icons.net, CC BY 3.0.
       Kendi içinde CSS animasyonu: çekiç el pivotu (30,268) etrafında kalkıp örse iner,
       inişte kıvılcım çakar. <img> ile yüklenince animasyon çalışır. -->
  <style>
    .anvil, .spark, .hammer { fill: #6f8fb0; }
    .hammer {
      transform-box: view-box;
      transform-origin: 30px 268px;
      animation: ors-strike 0.85s ease-in-out infinite;
    }
    .spark { opacity: 0; animation: ors-spark 0.85s ease-in-out infinite; }
    @keyframes ors-strike {
      0%, 42%, 100% { transform: rotate(-17deg); }
      60% { transform: rotate(1deg); }
      76% { transform: rotate(-17deg); }
    }
    @keyframes ors-spark {
      0%, 50%, 80%, 100% { opacity: 0; }
      60%, 70% { opacity: 1; }
    }
  </style>
  <path class="anvil" d="M197.593 266.78v20.345h-88.906c15.994 38.807 51.225 65.43 88.906 74.28v32.97h58.562c-12.118 30.528-33.505 55.684-58.47 77.594H172.22v18.686H456.56V471.97h-27.406c-28.734-21.895-50.055-47.018-61.625-77.595h63.658v-29.188c19.748-6.995 39.5-19.51 59.25-36.687-19.812-17.523-39.23-27.25-59.25-31.938v-29.78H197.594z"/>
  <path class="spark" d="M413.375 69.906L336.937 191.47l-8.25-32.69-30.218 88.97 62.655-29.375.22 29.438 127.03-50.938-70.813-1.97 47.782-68.686-73.47 39.25 21.5-95.564z"/>
  <path class="hammer" d="M210.22 102.094l-32 14.406 16.874 55.656-177.813 80.03 12.564 27.876L207.656 200l30.406 49.47 49.313-22.19-21.344-70.343-55.81-54.843z"/>
</svg>
